<?xml version="1.0" standalone="no"?>
<!DOCTYPE svg PUBLIC "-//W3C//DTD SVG 20010904//EN"
 "http://www.w3.org/TR/2001/REC-SVG-20010904/DTD/svg10.dtd">
<svg version="1.0" xmlns="http://www.w3.org/2000/svg"
 width="1024.000000pt" height="1280.000000pt" viewBox="0 0 1024.000000 1280.000000"
 preserveAspectRatio="xMidYMid meet">

<g transform="translate(0.000000,1280.000000) scale(0.100000,-0.100000)"
fill="#000000" stroke="none">
<path d="M4779 12790 c-1247 -87 -2396 -610 -3278 -1491 -724 -725 -1208
-1630 -1405 -2629 -122 -620 -126 -1287 -10 -1882 256 -1322 1043 -2635 2575
-4293 373 -404 610 -647 1531 -1570 l928 -930 938 940 c1261 1264 1675 1702
2188 2316 1555 1860 2149 3383 1959 5022 -173 1489 -991 2826 -2240 3662 -711
475 -1461 745 -2340 840 -167 19 -669 27 -846 15z m621 -3715 c572 -124 996
-551 1115 -1120 23 -109 31 -330 16 -449 -59 -463 -336 -864 -751 -1084 -184
-98 -385 -151 -605 -159 -412 -16 -779 130 -1070 424 -192 194 -321 440 -382
723 -25 120 -25 420 0 540 128 601 582 1037 1182 1136 106 18 393 11 495 -11z"/>
</g>
</svg>
